<svg xmlns="http://www.w3.org/2000/svg" xmlns:xlink="http://www.w3.org/1999/xlink" viewBox="0 0 180 96" width="180" height="96" preserveAspectRatio="xMidYMid meet" style="width: 100%; height: 100%; transform: translate3d(0px, 0px, 0px); content-visibility: visible;"><defs><clipPath id="__lottie_element_3"><rect width="180" height="96" x="0" y="0"></rect></clipPath><g id="__lottie_element_4"><g style="display: none;"><path fill="url(#__lottie_element_7)"></path></g></g><linearGradient id="__lottie_element_7" spreadMethod="pad" gradientUnits="userSpaceOnUse"><stop></stop><stop></stop></linearGradient><mask id="__lottie_element_4_1" mask-type="alpha"><use xlink:href="#__lottie_element_4"></use></mask><g id="__lottie_element_11"><g style="display: none;"><path fill="url(#__lottie_element_14)"></path></g></g><linearGradient id="__lottie_element_14" spreadMethod="pad" gradientUnits="userSpaceOnUse"><stop></stop><stop></stop></linearGradient><mask id="__lottie_element_11_1" mask-type="alpha"><use xlink:href="#__lottie_element_11"></use></mask></defs><g clip-path="url(#__lottie_element_3)"><g mask="url(#__lottie_element_11_1)" style="display: block;"><g transform="matrix(6.199999809265137,0,0,1.2000000476837158,90,48)" opacity="1"><path fill="rgb(255,39,145)" fill-opacity="1" d=" M50,-75 C50,-75 50,75 50,75 C50,75 -50,75 -50,75 C-50,75 -50,-75 -50,-75 C-50,-75 50,-75 50,-75z"></path></g></g><g mask="url(#__lottie_element_4_1)" style="display: block;"><g transform="matrix(6.199999809265137,0,0,1.2000000476837158,90,48)" opacity="1"><path fill="rgb(255,39,145)" fill-opacity="1" d=" M50,-75 C50,-75 50,75 50,75 C50,75 -50,75 -50,75 C-50,75 -50,-75 -50,-75 C-50,-75 50,-75 50,-75z"></path></g></g></g></svg>