<svg viewBox="0 0 24 24" fill="currentColor" width="40px" height="40px" data-ux="CloseIcon" data-edit-interactive="true" data-close="true" class="x-el x-el-svg c1-1 c1-2 c1-5y c1-2c c1-4i c1-2e c1-2f c1-2g c1-2h c1-21 c1-5z c1-60 c1-35 c1-61 c1-62 c1-2w c1-b c1-63 c1-2y c1-2z c1-30 c1-31" xmlns="http://www.w3.org/2000/svg"><path fill-rule="evenodd" d="M19.219 5.22a.75.75 0 0 0-1.061 0l-5.939 5.939-5.939-5.94a.75.75 0 1 0-1.061 1.062l5.939 5.939-5.939 5.939a.752.752 0 0 0 0 1.06.752.752 0 0 0 1.061 0l5.939-5.938 5.939 5.939a.75.75 0 1 0 1.061-1.061l-5.939-5.94 5.939-5.938a.75.75 0 0 0 0-1.061"></path></svg>